# xmcd
#
# Track frame offsets: 
#        183
#        16333
#        32470
#        43495
#        57895
#        75195
#        93808
#        104970
#        122583
#        139170
#        155683
#        192170
#        206683
#        230158
#        246283
#        263383
#
# Disc length: 3687 seconds
#
# Revision: 3
# Processed by: cddbd v1.5.2PL0 Copyright (c) Steve Scherf et al.
# Submitted via: ExactAudioCopy v0.95b4
#
DISCID=d60e6510
DTITLE=José Feliciano - Greatest Hits
DYEAR=1994
DGENRE=Blues
TTITLE0=Che Sara
TTITLE1=Light My Fire
TTITLE2=Rain
TTITLE3=No Dogs Allowed
TTITLE4=The Windmills Of Your Mind
TTITLE5=Calofornia Dreamin'
TTITLE6=Destiny
TTITLE7=First Of May
TTITLE8=Guantanamera
TTITLE9=Hi- Heel Sneekers
TTITLE10=Hey Jude
TTITLE11=By The Time I Get To Phoenix
TTITLE12=She's A Woman
TTITLE13=Sunny
TTITLE14=Miss Otis Regrets
TTITLE15=Chico And The Man
EXTD=
EXTT0=
EXTT1=
EXTT2=
EXTT3=
EXTT4=
EXTT5=
EXTT6=
EXTT7=
EXTT8=
EXTT9=
EXTT10=
EXTT11=
EXTT12=
EXTT13=
EXTT14=
EXTT15=
PLAYORDER=
